<svg width="10" height="11" viewBox="0 0 10 11" fill="none" xmlns="http://www.w3.org/2000/svg">
<path d="M5.17188 6.67578C5.36979 6.67578 5.55469 6.63932 5.72656 6.56641C5.90104 6.49089 6.04427 6.38021 6.15625 6.23438C6.27083 6.08594 6.33594 5.90495 6.35156 5.69141H6.79688C6.78385 5.95964 6.70182 6.19922 6.55078 6.41016C6.40234 6.61849 6.20703 6.78255 5.96484 6.90234C5.72526 7.01953 5.46094 7.07812 5.17188 7.07812C4.8776 7.07812 4.61719 7.02474 4.39062 6.91797C4.16667 6.8112 3.97917 6.66276 3.82812 6.47266C3.67708 6.27995 3.5625 6.05599 3.48438 5.80078C3.40885 5.54297 3.37109 5.26562 3.37109 4.96875V4.80469C3.37109 4.50781 3.40885 4.23177 3.48438 3.97656C3.5625 3.71875 3.67708 3.49479 3.82812 3.30469C3.97917 3.11198 4.16667 2.96224 4.39062 2.85547C4.61458 2.7487 4.8737 2.69531 5.16797 2.69531C5.47005 2.69531 5.74089 2.75651 5.98047 2.87891C6.22266 3.0013 6.41536 3.17448 6.55859 3.39844C6.70443 3.6224 6.78385 3.88802 6.79688 4.19531H6.35156C6.33854 3.96875 6.27865 3.77344 6.17188 3.60938C6.0651 3.44531 5.92448 3.31901 5.75 3.23047C5.57552 3.14193 5.38151 3.09766 5.16797 3.09766C4.92839 3.09766 4.72396 3.14453 4.55469 3.23828C4.38542 3.32943 4.2474 3.45573 4.14062 3.61719C4.03646 3.77604 3.95964 3.95833 3.91016 4.16406C3.86068 4.36719 3.83594 4.58073 3.83594 4.80469V4.96875C3.83594 5.19531 3.85938 5.41146 3.90625 5.61719C3.95573 5.82031 4.03255 6.0013 4.13672 6.16016C4.24349 6.31901 4.38151 6.44531 4.55078 6.53906C4.72266 6.63021 4.92969 6.67578 5.17188 6.67578Z" fill="#FFFBFB"/>
<circle cx="5" cy="5" r="4.5" stroke="#FFFBFB"/>
</svg>
